<?xml version="1.0" standalone="no"?>
<!DOCTYPE svg PUBLIC "-//W3C//DTD SVG 20010904//EN"
 "http://www.w3.org/TR/2001/REC-SVG-20010904/DTD/svg10.dtd">
<svg version="1.0" xmlns="http://www.w3.org/2000/svg"
 width="260.000000pt" height="260.000000pt" viewBox="0 0 260.000000 260.000000"
 preserveAspectRatio="xMidYMid meet">
<metadata>
Created by potrace 1.11, written by Peter Selinger 2001-2013
</metadata>
<g transform="translate(0.000000,260.000000) scale(0.100000,-0.100000)"
fill="#000000" stroke="none">
<path d="M0 1300 l0 -1300 1300 0 1300 0 0 1300 0 1300 -1300 0 -1300 0 0
-1300z m1571 736 c176 -38 282 -140 309 -299 20 -111 -17 -216 -101 -292 -42
-38 -111 -74 -141 -75 -43 0 -21 -19 40 -34 212 -52 321 -257 253 -475 -37
-120 -139 -216 -280 -263 -63 -22 -83 -23 -498 -26 l-433 -3 0 740 0 741 393
0 c298 0 408 -4 458 -14z"/>
<path d="M1100 1615 l0 -167 148 4 c165 3 196 14 239 78 30 43 32 129 4 174
-38 61 -69 71 -238 74 l-153 4 0 -167z"/>
<path d="M1100 1029 l0 -191 168 4 c153 3 170 5 207 26 62 36 88 81 89 155 1
150 -82 196 -351 197 l-113 0 0 -191z"/>
</g>
</svg>
